<svg xmlns="http://www.w3.org/2000/svg" version="1.1" xmlns:xlink="http://www.w3.org/1999/xlink" width="1500" height="1500" viewBox="0 0 1500 1500"><rect width="1500" height="1500" x="0" y="0" id="background" stroke="transparent" fill="#000000"></rect><svg xml:space="preserve" width="1000" height="1000" data-version="2" data-id="lg_Z8fZwOCcIoD2mskVIQ" viewBox="0 0 566 129" x="250" y="250"><rect width="100%" height="100%" fill="transparent"></rect><path fill="#d2d6dc" d="M170.715 3.6q0 .21-.14.63l-.77.7h-.42q-.28 0-.53-.03-.24-.04-.6-.04-.21-.35-.38-.7-.18-.35-.18-.78.7-1.12 1.55-1.12.21 0 .42.03.21.04.35.04.28.28.49.6.21.31.21.67m-6.82 0q0 .42-.21.73-.21.32-.42.67-.35 0-.6.04-.24.03-.52.03t-.71-.14l-.84-.91q.28-.28.25-.35-.04-.07-.04-.43 0-.21.07-.35l.7-.7h.81q.39 0 .81.07.14.28.32.53.17.24.38.45Zm-6.75-.08q-.07.78-.56 1.16-.49.39-1.26.39-.14 0-.71-.14-.07-.07-.45-.53-.39-.45-.25-.59.07-.07.07-.29 0-.49.46-.94.45-.46.95-.46.35 0 .56.14.21.14.56.21.21.28.32.56.1.28.31.49m-7.24.57q-.28.28-.49.35v.35q-.28.14-.6.21-.31.07-.67.28-.35-.21-.7-.45-.35-.25-.77-.46 0-.35-.04-.7-.03-.36-.03-.71.42-.21.81-.49.38-.28.8-.56l1.13.49q.14.49.35.84.21.36.21.85m-6.89-.35q0 .42-.21.49-.14.35-.28.45-.14.11-.28.46h-.71q-1.19 0-1.44-.42-.24-.42-.38-1.41.07-.35.24-.49.18-.14.25-.49.35-.14.6-.21.24-.07.59-.07.36 0 .6.1.25.11.53.18 0 .49.25.74.24.24.24.67m7.1 7.94q-.35.56-.63 1.02-.28.46-.98.74-.36-.14-.46-.11-.11.04-.46.04l-.28-.14q-.28-.35-.42-.63-.14-.29-.42-.64.42-.42.42-.98.7-.49 1.4-.49.22 0 .39.03.18.04.39.11.21.21.24.38.04.18.11.32t.21.21q.14.07.49.14m-14.27-7.45q-.56.56-.98.67-.43.1-1.2.1-.7 0-.91-.67-.21-.66-.21-1.23.42-.35.8-.7.39-.35.95-.28l.35-.21q.29.42.5.63.21.21.35.42.14.21.21.49.07.29.14.78m14.27 16.17q-.14.14-.28.49t-.21.49q-.21.14-.46.29-.24.14-.45.35-.35-.21-.57-.21-.21 0-.56-.07-.28-.36-.38-.43-.11-.07-.53-.14.14-.7.35-1.58.21-.88 1.19-.88.85 0 1.16.56.32.57.74 1.13m-21.65-16.66q0 .49-.42 1.05-.29.14-.53.21-.25.07-.6.07-.63 0-.91-.39-.29-.38-.64-.87.14-.71.14-1.06.36-.21.78-.39.42-.17.84-.17.21 0 .46.07.24.07.46.07l.28.7q.14.35.14.71m21.51 24.96q-.28.56-.52 1.05-.25.49-1.02.49-.36 0-.57-.1-.21-.11-.49-.11-.28-.28-.35-.56-.07-.28-.42-.42 0-.56.14-.85.14-.28.49-.7l1.27-.42q.35.35.45.42.11.07.67.21 0 .49.04.56.03.08.31.43m-.07 8.29q0 .5-.17.5-.18 0-.04.49-.35.21-.67.42-.31.21-.74.21-.21 0-.42-.07t-.49-.14q-.07-.14-.42-.6-.35-.45-.35-.6 0-.56.6-1.05.59-.49 1.16-.49.28 0 .73.45.46.46.81.67Zm-.28 8.86q-.14.35-.35.57-.21.21-.35.56l-1.69-.14q-.21-.49-.53-.67-.31-.18-.38-.74.35-.56.63-1.02.28-.46 1.05-.46.85 0 1.41.71Zm.28 8.09q0 .14-.14.56-.21.21-.6.53-.38.32-.73.32-.36 0-.46-.15-.11-.14-.53-.07l-.53-.66q-.24-.32-.24-.81 0-.49.35-.74t.56-.6h.56q.36 0 1.06.14.14.35.42.67.28.32.28.81"></path><rect width="45.35" height="53.44" x="-22.68" y="-26.72" fill="none" rx="0" ry="0" transform="translate(148.54 29.13)"></rect><path fill="#d2d6dc" d="M235.965 4.3q-.35.21-.7.49t-.84.28q-.28 0-.56-.07-.29-.07-.57-.07-.14-.28-.38-.74-.25-.45-.25-.74.28-.49.7-.91.43-.42 1.06-.42.35 0 .91.28.42.63.42.98 0 .36.21.92m-2.32 7.17q-.28.35-.49.91-.28.22-.53.36-.24.14-.52.35l-1.34-.35q-.21-.22-.28-.5-.07-.28-.28-.56.14-.28.28-.7.07-.21.07-.35l1.27-.78q.21.14.42.21.35.21.63.14.21.36.39.64zm-2.46 8.58q-.14.28-.24.46-.11.17-.11.52-.84.49-1.54.49-.5 0-1.06-.28-.49-.7-.49-1.33v-.64q.49-.35 1.05-.59.57-.25 1.13-.25.21 0 .42.04.21.03.35.03.14.35.28.74t.21.81m-2.74 8.51q0 1.54-1.48 1.54-.63 0-1.19-.52-.56-.53-.56-1.16 0-.92.91-1.09.92-.18 1.55-.25.35.35.56.63.21.28.21.85m-23.41-23.21q0 .71-.64 1.48-.63-.07-1.19-.04-.56.04-1.13-.52 0-.21-.07-.46t-.07-.53q0-.49.46-.98t1.02-.49q.49 0 .88.31.39.32.74.6Zm3.58 8.16q0 .56-.63.95-.63.39-1.2.39-.63 0-1.19-.57-.07-.35-.18-.63-.1-.28-.24-.63.28-.21.42-.5l.28-.56h.35q.42-.14.71-.14.42.14.8.39.39.24.74.46 0 .21.07.42t.07.42m1.9 7.94q0 .22-.03.43-.04.21-.04.49-.35.14-.49.21-.14.07-.25.1l-.28.11q-.17.07-.6.07l-.42.21q-.35-.42-.53-.53-.17-.1-.59-.45l.21-1.13.63-.84q.35-.14 1.06-.14.7 0 1.02.42.31.42.31 1.05m15.61 15.75q-.21.43-.39.78-.17.35-.52.7-.14 0-.32.04-.18.03-.32.03-.49 0-.73-.21-.25-.21-.6-.21-.14-.35-.32-.74-.17-.39-.17-.81 0-.35.28-.77l1.97-.49q.35.35.73.74.39.38.39.94m-24.82-24.11q0 .35-.14.59-.14.25-.28.6-.28.07-.53.14-.24.07-.53.07-.63 0-1.12-.42-.28-.49-.7-.77.14-.56.45-1.2.32-.63 1.02-.63.49 0 .81.21.32.21.81.21l.14.56q.07.29.07.64m11.6 16.45v.28q-.35.49-.84.88t-1.13.39q-.77 0-1.26-.85-.07-.28-.14-.42-.07-.14-.07-.28 0-.56.56-1.02.56-.46 1.12-.46.22 0 .57.11.35.1.56.25.21.28.42.52.21.25.21.6m-13.5-7.8q-.42.14-.88.45-.45.32-.95.32-.14 0-.56-.14l-.63-.21q-.21-.28-.39-.6-.17-.32-.17-.67v-.42q.35-.35.84-.67.49-.31.91-.31.36 0 .46.21.11.21.25.42.77.28.84.6.07.31.28 1.02m23.91 23.55q0 .49-.39.95-.38.46-.95.46-.35 0-.63-.18-.28-.17-.63-.17-.14-.36-.32-.71t-.18-.77q0-.28.11-.49.11-.21.25-.5.49-.21 1.05-.21.63 0 1.06.21.28.43.45.64.18.21.18.77m-8.44-7.59q0 .28-.03.52-.04.25-.11.6-.35.14-.7.21-.35.07-.71.07-.49 0-.91-.21-.21-.35-.39-.56-.17-.21-.52-.42l.35-1.2q.35-.21.67-.42.31-.21.66-.21.36 0 .71.21t.7.35q.28.35.28 1.06m-39.09-34.1q-.14.35-.35.59-.22.25-.5.32-.42.42-.77.42-.49 0-1.05-.46-.57-.45-.57-.95.28-.63.46-.91t.81-.56q.7 0 1.33.38.64.39.64 1.17m41.2 42.53q-.49.36-.84.67-.35.32-.99.32-.63 0-1.12-.56-.49-.57-.49-1.2v-.56q.49-.35.84-.49t.91-.14q.35 0 .64.1.28.11.63.11l.35.63q0 .21-.04.39-.03.17-.1.38.14.28.21.35m-19.55-17.15q0 .7-.45 1.19-.46.5-1.16.5-.5 0-.85-.32t-.7-.6v-.35q0-.21-.07-.42t-.07-.42q0-.14.14-.57.98-.42 1.97-.63.21.35.42.46.21.1.56.31.21.43.21.85m-20.11-17.93q0 .35-.1.6-.11.24-.18.52-.35.07-.84.57-.49 0-.99-.11-.49-.11-.84-.46 0-.35-.07-.7l-.14-.7q.42-1.13 1.55-1.13h.49q.28.14.46.32.17.17.52.17.14.57.14.92m41.98 42.68q0 .28-.39.67-.38.38-.52.73-.71-.14-1.48-.42-.77-.28-.77-1.19 0-.5.14-.6.14-.11 0-.74.42 0 .67-.03.24-.04.59-.32.64.28 1.2.7.56.42.56 1.2m-40.15-34.38q-.07.14-.07.38 0 .25-.07.39.07.07.07.14t.07.21q-.28.35-.63.53-.35.17-.63.45-.36-.21-.74-.31-.39-.11-.74-.39 0-.35-.18-.53-.17-.17-.17-.73.21-.29.35-.57.14-.28.49-.49.28 0 .53-.03.25-.04.46-.04h.63q.21.28.35.46.14.17.28.53m15.89 17.85q-.07.71-.52 1.16-.46.46-1.16.46-.43 0-.95-.17-.53-.18-.53-.74 0-.21-.07-.42-.07-.22-.07-.43.35-.35.77-.84.42-.49.99-.49.56 0 .98.53.42.52.56.94m-13.64-9q0 .64-.35.92t-.77.63q-.42-.07-.81-.07-.39 0-.81-.14-.14-.35-.28-.67-.14-.31-.14-.67 0-.56.31-.77.32-.21.6-.63h1.48q.21.35.49.67.28.31.28.73m11.39 17.37q0 .35-.14.92h-.42q-.14 0-.28.17-.14.18-.42.18-.64 0-1.06-.32-.42-.32-.91-.67.14-.35.24-.88.11-.52.32-.73.35-.14.74-.32t.74-.18q.21 0 .38.07.18.07.32.14.49.85.49 1.62m-9.14-8.58q-.14.36-.28.6-.14.25-.28.53l-.7.49q-.28 0-.46-.14t-.46-.21q-.21 0-.35.07-.28-.35-.49-.7-.21-.36-.21-.78 0-.21.03-.42.04-.21.04-.42.35-.28.77-.39.42-.1.77-.31.36.21.71.42l.7.42.14.42q.07.21.07.42m2.32 8.3q0 .42-.52.84-.53.43-.88.43-.57 0-1.2-.43-.63-.42-.63-1.05 0-.35.14-.6.14-.24.21-.6.42 0 .6-.17.17-.18.52-.18.5 0 .88.28.39.29.81.5 0 .28.04.49.03.21.03.49m3.59 8.37q0 .35-.28.91l-.85.56q-.84-.28-1.44-.59-.6-.32-.6-1.37v-.36q.22-.21.32-.28.11-.07.21-.14.11-.07.18-.21.07-.14.14-.49.28.28.49.42.14-.07.49-.07h.28q.43.56.99.98 0 .15.03.32.04.18.04.32"></path><rect width="63.42" height="53.08" x="-31.71" y="-26.54" fill="none" rx="0" ry="0" transform="translate(204.75 29.09)"></rect><path fill="#d2d6dc" d="M246.445 2.82q0 .28-.03.49-.04.21-.04.5-.42.14-.88.28-.45.14-.88.14-.42-.21-.77-.53-.35-.32-.35-.81 0-.42.21-.7.21-.28.35-.63.42-.14.63-.14.57 0 .99.31.42.32.77.67Zm.28 5.77q-.14.35-.21.59-.07.25-.07.6-.35.21-.7.39-.35.18-.78.18-.56 0-.84-.25-.28-.25-.39-.6-.1-.35-.14-.74-.03-.38-.1-.74.42-.14.74-.35.31-.21.73-.21.5.28.95.46.46.18.81.67m-.35 6.96q0 .63-.42 1.05-.56.21-1.06.21h-.42q-.35-.28-.63-.56t-.28-.7q0-.14.07-.35.07-.21.14-.35.35-.15.7-.32.35-.18.71-.18.35 0 .59.21.25.21.6.36Zm-.14 5.9q0 .78-.11 1.2-.1.42-.45 1.05-.56-.07-.92-.03-.35.03-.91-.18 0-.42-.14-.81-.14-.38-.14-.73v-.5l.56-.28q.28-.14.56-.14.5 0 .81.21.32.21.74.21m0 7.53q0 .35-.25.63-.24.28-.38.63-.56.14-.92.14-.56 0-.98-.45-.42-.46-.42-1.02 0-.35.21-.6t.49-.39q.28-.21.7-.21.5 0 1.06.35.07.29.28.43.21.14.21.49m.07 6.4q0 .63-.49 1.26-.42.21-.92.21-.77 0-1.26-.49-.14-.28-.14-.84 0-.35.24-.88.25-.53.74-.53.14 0 .21.04.07.03.14.03l.22-.28q.35.35.52.49.18.14.6.28.14.43.14.71m.35 7.03q-.49.28-.91.49-.42.21-.99.21h-.63q-.35-.28-.63-.56t-.42-.63q.28-.5.59-.85.32-.35.6-.77.07.07.35.21.14 0 .25-.04.1-.03.25-.03.21 0 .35.07.21.56.77.63 0 .49.07.71.21.14.35.56m-.42 6.04q0 .5-.53.71-.52.21-.88.21-.35 0-.59-.04-.25-.03-.53-.03-.07-.35-.21-.63-.14-.29-.14-.64.35-.63.56-.77.21-.14.63-.56.28.14.5.24.21.11.56.11.14.35.38.7.25.35.25.7m.14 5.77q-.14.28-.42.53-.28.24-.28.6-.56.14-.85.14-.56 0-.95-.32-.38-.32-.66-.74.14-.35.14-.6v-.52q.35-.14.7-.36.35-.21.7-.21.29 0 .5.18.21.18.42.25.21.35.24.63.04.28.46.42"></path><rect width="3.65" height="54.07" x="-1.82" y="-27.04" fill="none" rx="0" ry="0" transform="translate(245.4 28.95)"></rect><path fill="#d2d6dc" d="M298.825 3.6q0 .21-.14.63l-.77.7h-.42q-.28 0-.53-.03-.25-.04-.6-.04-.21-.35-.38-.7-.18-.35-.18-.78.7-1.12 1.55-1.12.21 0 .42.03.21.04.35.04.28.28.49.6.21.31.21.67m-6.82 0q0 .42-.21.73-.21.32-.42.67-.35 0-.6.04-.24.03-.52.03-.29 0-.71-.14l-.84-.91q.28-.28.25-.35-.04-.07-.04-.43 0-.21.07-.35l.7-.7h.81q.39 0 .81.07.14.28.32.53.17.24.38.45Zm-6.75-.08q-.07.78-.56 1.16-.49.39-1.26.39-.14 0-.71-.14-.07-.07-.45-.53-.39-.45-.25-.59.07-.07.07-.29 0-.49.46-.94.45-.46.95-.46.35 0 .56.14.21.14.56.21.21.28.32.56.1.28.31.49m-7.24.57q-.28.28-.49.35v.35q-.28.14-.6.21-.31.07-.67.28-.35-.21-.7-.45-.35-.25-.77-.46 0-.35-.04-.7-.03-.36-.03-.71.42-.21.81-.49.38-.28.8-.56l1.13.49q.14.49.35.84.21.36.21.85m-6.89-.35q0 .42-.21.49-.14.35-.28.45-.14.11-.28.46h-.71q-1.19 0-1.44-.42-.24-.42-.38-1.41.07-.35.24-.49.18-.14.25-.49.35-.14.6-.21.24-.07.59-.07.36 0 .6.1.25.11.53.18 0 .49.24.74.25.24.25.67m7.1 7.94q-.35.56-.63 1.02-.28.46-.98.74-.36-.14-.46-.11-.11.04-.46.04l-.28-.14q-.28-.35-.42-.63-.14-.29-.42-.64.42-.42.42-.98.7-.49 1.4-.49.22 0 .39.03.18.04.39.11.21.21.24.38.04.18.11.32t.21.21q.14.07.49.14m-14.27-7.45q-.56.56-.99.67-.42.1-1.19.1-.7 0-.91-.67-.22-.66-.22-1.23.43-.35.81-.7.39-.35.95-.28l.35-.21q.29.42.5.63.21.21.35.42.14.21.21.49.07.29.14.78m14.27 16.17q-.14.14-.28.49t-.21.49q-.21.14-.46.29-.24.14-.45.35-.36-.21-.57-.21-.21 0-.56-.07-.28-.36-.39-.43-.1-.07-.52-.14.14-.7.35-1.58.21-.88 1.19-.88.85 0 1.16.56.32.57.74 1.13m-21.65-16.66q0 .49-.43 1.05-.28.14-.52.21-.25.07-.6.07-.63 0-.91-.39-.29-.38-.64-.87.14-.71.14-1.06.35-.21.78-.39.42-.17.84-.17.21 0 .46.07.24.07.45.07.15.35.29.7.14.35.14.71m21.51 24.96q-.28.56-.53 1.05-.24.49-1.01.49-.36 0-.57-.1-.21-.11-.49-.11-.28-.28-.35-.56-.07-.28-.42-.42 0-.56.14-.85.14-.28.49-.7l1.27-.42q.35.35.45.42.11.07.67.21 0 .49.04.56.03.08.31.43m-.07 8.29q0 .5-.17.5-.18 0-.04.49-.35.21-.67.42-.31.21-.74.21-.21 0-.42-.07t-.49-.14q-.07-.14-.42-.6-.35-.45-.35-.6 0-.56.59-1.05.6-.49 1.16-.49.29 0 .74.45.46.46.81.67Zm-.28 8.86q-.14.35-.35.57-.21.21-.35.56l-1.69-.14q-.21-.49-.53-.67-.31-.18-.38-.74.35-.56.63-1.02.28-.46 1.05-.46.85 0 1.41.71Zm.28 8.09q0 .14-.14.56-.21.21-.6.53-.38.32-.73.32-.36 0-.46-.15-.11-.14-.53-.07l-.53-.66q-.24-.32-.24-.81 0-.49.35-.74t.56-.6h.56q.36 0 1.06.14.14.35.42.67.28.32.28.81"></path><rect width="45.35" height="53.44" x="-22.68" y="-26.72" fill="none" rx="0" ry="0" transform="translate(276.65 29.13)"></rect><path fill="#d2d6dc" d="M345.655 3.6q0 .21-.14.63l-.77.7h-.42q-.28 0-.53-.03-.25-.04-.6-.04-.21-.35-.39-.7-.17-.35-.17-.78.7-1.12 1.55-1.12.21 0 .42.03.21.04.35.04.28.28.49.6.21.31.21.67m-6.82 0q0 .42-.21.73-.21.32-.42.67-.35 0-.6.04-.24.03-.53.03-.28 0-.7-.14l-.84-.91q.28-.28.24-.35-.03-.07-.03-.43 0-.21.07-.35l.7-.7h.81q.39 0 .81.07.14.28.32.53.17.24.38.45Zm-6.75-.08q-.07.78-.56 1.16-.49.39-1.27.39-.14 0-.7-.14-.07-.07-.46-.53-.38-.45-.24-.59.07-.07.07-.29 0-.49.45-.94.46-.46.95-.46.36 0 .57.14.21.14.56.21.21.28.32.56.1.28.31.49m-7.24.57q-.28.28-.49.35v.35q-.28.14-.6.21-.32.07-.67.28-.35-.21-.7-.45-.35-.25-.77-.46 0-.35-.04-.7-.03-.36-.03-.71.42-.21.8-.49.39-.28.81-.56l1.13.49q.14.49.35.84.21.36.21.85m-6.89-.35q0 .42-.21.49-.14.35-.28.45-.14.11-.28.46h-.71q-1.19 0-1.44-.42-.24-.42-.39-1.41.07-.35.25-.49t.25-.49q.35-.14.59-.21.25-.07.6-.07t.6.1q.25.11.53.18 0 .49.24.74.25.24.25.67m7.1 7.94q-.35.56-.63 1.02-.28.46-.99.74-.35-.14-.45-.11-.11.04-.46.04l-.28-.14q-.28-.35-.42-.63-.14-.29-.43-.64.43-.42.43-.98.7-.49 1.4-.49.21 0 .39.03.18.04.39.11.21.21.24.38.04.18.11.32t.21.21q.14.07.49.14m-14.27-7.45q-.57.56-.99.67-.42.1-1.19.1-.71 0-.92-.67-.21-.66-.21-1.23.42-.35.81-.7.39-.35.95-.28l.35-.21q.28.42.49.63.22.21.36.42.14.21.21.49.07.29.14.78m14.27 16.17q-.14.14-.28.49t-.21.49q-.21.14-.46.29-.24.14-.46.35-.35-.21-.56-.21-.21 0-.56-.07-.28-.36-.39-.43-.1-.07-.52-.14.14-.7.35-1.58.21-.88 1.19-.88.85 0 1.16.56.32.57.74 1.13m-21.66-16.66q0 .49-.42 1.05-.28.14-.52.21-.25.07-.6.07-.64 0-.92-.39-.28-.38-.63-.87.14-.71.14-1.06.35-.21.77-.39.43-.17.85-.17.21 0 .46.07.24.07.45.07l.28.7q.14.35.14.71m21.52 24.96q-.28.56-.53 1.05-.24.49-1.02.49-.35 0-.56-.1-.21-.11-.49-.11-.28-.28-.35-.56-.07-.28-.42-.42 0-.56.14-.85.14-.28.49-.7l1.26-.42q.36.35.46.42.11.07.67.21 0 .49.03.56.04.08.32.43m-.07 8.29q0 .5-.18.5-.17 0-.03.49-.35.21-.67.42-.32.21-.74.21-.21 0-.42-.07t-.49-.14q-.07-.14-.42-.6-.35-.45-.35-.6 0-.56.59-1.05.6-.49 1.16-.49.28 0 .74.45.46.46.81.67Zm-.28 8.86q-.14.35-.35.57-.21.21-.35.56l-1.69-.14q-.21-.49-.53-.67-.32-.18-.39-.74.36-.56.64-1.02.28-.46 1.05-.46.85 0 1.41.71Zm.28 8.09q0 .14-.14.56-.21.21-.6.53-.39.32-.74.32t-.45-.15q-.11-.14-.53-.07l-.53-.66q-.24-.32-.24-.81 0-.49.35-.74t.56-.6h.56q.35 0 1.06.14.14.35.42.67.28.32.28.81"></path><rect width="45.35" height="53.44" x="-22.68" y="-26.72" fill="none" rx="0" ry="0" transform="translate(323.48 29.13)"></rect><path fill="#d2d6dc" d="M387.635 3.31q0 .57-.56 1.06-.57.49-1.13.49h-.42q-.28-.35-.49-.67-.21-.31-.42-.67.14-.42.17-.52.04-.11-.1-.53 1.05-.49 1.89-.56.57.56.92.7.14.56.14.7m-6.12.07v.43q-.49.21-.56.7-.28.07-.53.14-.24.07-.6.07-.21 0-.42-.07t-.49-.07q0-.35-.11-.6-.1-.24-.1-.53 0-.49.46-.87.45-.39.8-.6.36.07.5.21.14.14.49 0 .14.28.35.56.21.28.21.63m-5.83.07-.99 1.41q-.42-.07-.7-.07-.28 0-.49-.03-.21-.04-.43-.22-.21-.17-.56-.66v-.57q0-.28.07-.42.07-.14.21-.35.28-.28.6-.42.32-.14.67-.28.35.21.56.42.21.21.56.28Zm-6.89-.63q0 .78-.39 1.34t-1.23.56h-.63q-.5-.7-.5-1.34v-.56q.42-.35.53-.6.11-.24.74-.24.49 0 .81.24.31.25.67.6m-6.26.49q0 .71-.21 1.13-.21.42-.99.42-.35 0-.63-.18l-.63-.38q-.07-.14-.14-.32-.07-.17-.07-.38 0-.64.52-.99.53-.35 1.09-.35.14 0 .32.03.17.04.39.04.07.28.21.49.14.21.14.49m18.49 24.33q0 .21-.14.49-.56.57-.88.67-.32.11-1.09.18-.35-.28-.42-.6-.07-.32-.42-.6l.63-1.26h.42q.14-.07.35-.18.21-.1.42-.1.15 0 .57.14.14.35.35.63.21.28.21.63m-24.26-23.97q-.14.35-.28.59-.14.25-.14.67h-.42q-.14.14-.18.32-.03.17-.17.31-.57-.14-1.3-.45-.74-.32-.74-1.09 0-.64.42-1.02.42-.39.98-.39.28 0 .71.14.14.35.49.49t.63.43m18.14 24.04q0 .42-.24.74-.25.32-.6.53l-.28-.14q-.14 0-.18.03-.03.04-.17.04-.57 0-.88-.42-.32-.43-.32-.99 0-.7.56-1.12.35 0 1.06-.14.42.21.74.56.31.35.31.91m-19.33-18.63q0 .35-.07.63l-.14.56h-.64q-.21 0-.56.36-1.12-.5-1.55-1.62.35-.28.74-.56t.67-.64q.49.07 1.02.36.53.28.53.91m.84 5.84q-.35.49-.56 1.19-.35-.07-.67 0-.32.07-.67.07-.49 0-.77-.21-.14-.35-.35-.63-.21-.28-.21-.64 0-.14.14-.56.28-.28.63-.42.35-.14.63-.42.49.07.78.24.28.18.63.39.14.28.21.53.07.24.21.46m11.53 12.44q-.21.63-.53 1.2-.31.56-1.16.56-.28-.14-.59-.21-.32-.07-.53-.28-.21-.43-.21-.92 0-.21.07-.35.07-.14.14-.35l.91-.7.71-.07q.28.28.59.52.32.25.6.6m-11.25-6.19q-.14.57-.42.99-.28.42-.21 1.05-.35 0-.63-.03-.29-.04-.57-.04-.07 0-.21.04-.14.03-.14.1-.35-.28-.49-.38-.14-.11-.56-.25 0-.28.03-.46.04-.17.11-.45 0-.07-.14-.36.28-.35.66-.66.39-.32.95-.32.5 0 .85.49Zm4.5 6.89q-.63.99-1.69.99-.28 0-.84-.14-.07-.28-.21-.49-.14-.22-.14-.57v-.35q.14-.35.31-.6.18-.24.18-.59.56 0 1.06.17.49.18 1.05.32.14.35.14.63t.14.63m25.74 26.44q-.5.49-.99.6-.49.1-1.05.32-.99-.64-.99-1.62 0-.42.49-.95.5-.53.99-.53.56 0 .7.25.14.24.49.31.29.43.25.6-.03.18-.03.6 0 .28.14.42m-30.59-26.93q-.21.42-.46.88-.24.46-.67.74-.35 0-.7.03-.35.04-.7.04 0-.49-.28-.63t-.28-.78q0-.35.21-.67.21-.31.49-.59h.28q.14 0 .25-.04.1-.03.24-.03h.42Zm24.68 26.65q0 .28-.14.49-.14.21-.28.49-.71.36-1.69.36-.28-.29-.46-.57-.17-.28-.38-.56 0-.35.07-.67.07-.31.07-.66.42 0 .49-.22.07-.21.14-.56.7.28 1.02.39.32.1.74.74.14.21.28.35.14.14.14.42m-25.1-20.67q0 .56-.14 1.02-.14.45-.14.95-.35.14-.71.28-.35.14-.7.14h-.7q-.14-.56-.32-.74-.17-.18-.17-.95 0-.35.07-.49l1.54-.91q.35.28.6.42.25.14.67.28m19.12 20.25q-.21.42-.24.77-.04.35-.32.7-.56.22-.98.22-.57 0-.95-.43-.39-.42-.39-.98 0-.21.14-.49.14-.14.35-.32.21-.17.35-.39l.21-.21q1.06 0 1.16.21.11.22.67.92m-18.84-13.15q-.14.49-.28.63t-.07.64q-.35.14-.71.28-.35.14-.7.14-.21 0-.42-.04-.21-.03-.42-.03-.14-.35-.35-.64-.21-.28-.21-.7v-.42q.49-.99 1.26-.99.35 0 .67.08.32.07.67.07.14.28.24.52.11.25.32.46m12.37 13.5q0 .56-.35 1.05-.35.5-.98.5-.56 0-1.02-.39-.46-.39-.46-1.02 0-.56.28-.81.28-.24.64-.6.56.07 1.02.22.45.14.8.56.07.14.07.49m-12.51-7.45q-.07.35-.18.66-.1.32-.38.53-.71.28-1.13.28-.7 0-.95-.45-.24-.46-.31-1.02.35-.71 1.19-1.55.35.35.63.32.28-.04.64.31 0 .21.14.49.21.08.35.43m6.33 8.22q-.57.14-.81.35-.25.22-.81.22-.49 0-.77-.29-.14-.28-.32-.49-.18-.21-.18-.56 0-.28.11-.49.1-.21.18-.42.35-.22.66-.46.32-.25.81-.25.42 0 .63.07.07.5.29.6.21.11.21.46 0 .21-.11.38-.1.18-.1.32t.07.28zm-6.89-1.61q-.07 1.26-1.13 1.96-.42-.28-.98-.14-.21-.21-.39-.49-.18-.28-.46-.42v-.49q0-.28.07-.49.07-.22.07-.43.36-.21.74-.35.39-.14.74-.42.63.28.74.6.1.31.6.67"></path><rect width="35.09" height="53.86" x="-17.55" y="-26.93" fill="none" rx="0" ry="0" transform="translate(370.59 29.27)"></rect><path fill="#d2d6dc" d="M431.365 8.45q-.21.42-.21.56 0 .14-.07.56-.49.14-.6.39-.1.24-.73.24-.36 0-.64-.17-.28-.18-.63-.25-.14-.35-.25-.67-.1-.31-.1-.66 0-.21.03-.39.04-.18.11-.39.42-.14.88-.24.46-.11.81-.46Zm-6.61-4.85q0 .28-.03.52-.04.25-.04.53l-.77.46q-.42.24-.84.24-.57 0-.78-.28-.21-.28-.49-.63-.35-.56-.18-.67.18-.1.04-.74.28-.21.56-.38.28-.18.64-.18.56 0 1.09.32.52.31.8.81m8.23 12.86q0 .28-.25.49-.24.22-.31.57l-1.48.35q-.35-.35-.53-.74-.17-.39-.52-.74.14-.49.38-.91.25-.42.53-.85.35 0 .6.07.24.07.6.07.28.29.52.46.25.18.46.53Zm-15.61-13.64q0 .49-.17.78-.18.28-.53.63-.21 0-.46.03-.25.04-.53.04-.7 0-.95-.56-.24-.57-.59-.99.56-.56.63-1.19.28 0 .53-.04.24-.03.52-.03.43 0 .71.21.28.21.7.28.14.56.14.84m13.15 20.67q0 .36-.04.67-.03.32-.03.67l-1.06.21h-.87q-.39 0-.95-.35-.14-.49-.04-.6.11-.1-.03-.74.56-.91.91-1.02.35-.1 1.34-.45l.77.98Zm-21.09-20.6q0 .42-.36.63 0 .22.14.5-.35.07-.66.24-.32.18-.67.18-.35 0-.6-.07-.24-.07-.6-.14-.35-.28-.42-.6-.07-.32-.35-.6.49-.49.56-1.05.42-.35 1.34-.35h.42q.14.14.32.35.17.21.31.21.28.14.35.32.08.17.22.38m-8.16.21q-.21.64-.21 1.2-.35.14-.77.24-.43.11-.85.11-.63 0-1.12-.49 0-.28-.11-.49-.1-.22-.1-.57.21-.35.31-.7.11-.35.39-.7l.21.28q.42-.14.56-.14.28 0 .6.17.32.18.6.32 0 .35.1.46.11.1.39.31m22.92 25.46q0 1.75-1.69 1.75-.77 0-1.33-.56.07-.7.1-1.09.04-.39.39-1.02l.42-.14q.21-.07.49-.07.5 0 .88.39.39.38.74.74m-22.92-17.16q-.42.42-.95.7-.53.28-1.16.28-.49-.49-.91-1.12-.21-.63-.21-.81 0-.18.03-.25.04-.07.14-.1.11-.04.11-.25.35-.14.66-.31.32-.18.67-.18.35 0 .78.25.42.24.7.52Zm20.46 23.41q0 .5-.21.85t-.28.77q-.28 0-.56-.03-.29-.04-.64-.04-.14 0-.38.11-.25.1-.39.17-.07-.42-.28-.84-.21-.42-.21-.92v-.84l1.54-.63q.36.14.67.31.32.18.67.32 0 .21.04.42.03.21.03.35m-6.05-5.27q.07.49.11.6.03.1.03.67 0 .63-.52.91-.53.28-1.09.28-.42 0-.85-.21-.14-.35-.31-.6-.18-.24-.32-.59 0-.43.21-.74.21-.32.35-.67.35 0 .6-.07t.6-.07q.56 0 .63.1.07.11.56.39m8.72 13.64q-.49 0-.81-.28-.31-.28-.66-.63l.14-.99q.07-.49.42-.91.35-.21.74-.21.38 0 .81-.07.14.14.35.31.21.18.35.39.49.56.07 1.48-.42.91-1.41.91m6.12 4.85q0 .57-.42.85l-.42.49q-.57-.07-1.06-.11-.49-.03-.91-.38-.14-.36-.25-.67-.1-.32-.1-.67 0-.35.52-.74.53-.38.88-.38t.7.24q.36.25.71.39.35.49.35.98m-29.25-28.9q0 .5-.28.88-.28.39-.56.81-.22 0-.43.04-.21.03-.42.03-1.19 0-1.54-1.26.14-.43.07-.92.35-.14.45-.35.11-.21.32-.42.56 0 1.12.17.57.18 1.13.32.14.42.14.7m33.4 34.39q0 .42-.32 1.33-.31.92-.88.92-.35 0-.63-.11-.28-.1-.63-.1-.21-.29-.46-.43t-.46-.35q.07-.7.18-1.09.1-.38.35-.59.25-.22.63-.32.39-.11 1.02-.25.64.42 1.2.99m-26.44-23.28-.21.85q-.07.28-.42.7-.42.21-.92.21-.56 0-.98-.53-.42-.52-.42-1.09 0-.28.1-.52.11-.25.25-.46.49-.21.91-.21.28 0 .5.03.21.04.49.04Zm-6.89-2.74q-.14.49-.42 1.06-.28.56-1.13.56-.42 0-.74-.07-.31-.07-.66-.21-.14-.35-.14-.6t-.36-.6q.43-.42.81-.81.39-.38 1.09-.38h.57q.35.21.49.52.14.32.49.53m-.07 9.28q-.14.28-.81.81t-1.02.53q-.14-.21-.7-.49-.56-.28-.78-.36.22-.42.22-.49v-1.05q.56-.14.84-.32.28-.17.84-.17.21 0 .43.03.21.04.42.04.49.84.56 1.47m0 8.44q0 .35-.21.67-.21.31-.49.53-.57.21-1.13.21-.77 0-.84-.28-.07-.29-.49-.71v-.28q0-.21.03-.42.04-.21.04-.42.35-.21.7-.46t.77-.25q.28 0 .53.07t.53.07q.14.29.35.64.21.35.21.63m0 9q0 .28-.14.7-.35.14-.49.39t-.5.39q-.42-.14-.87-.21-.46-.07-.88-.22-.14-.35-.25-.63-.1-.28-.1-.63 0-.56.42-.77.14-.22.35-.43.21-.21.49-.21.77 0 1.37.39.6.39.6 1.23"></path><rect width="36.78" height="54.28" x="-18.39" y="-27.14" fill="none" rx="0" ry="0" transform="translate(416.79 29.13)"></rect><path fill="#d2d6dc" d="M49.585 80.24q0 .36-.38.88-.39.53-.81.53-.78 0-1.2-.21-.42-.21-.77-.91.07-.22.1-.46.04-.25.18-.39l.14-.7q.14 0 .28-.07.28-.14.49-.14.36 0 .64.1.28.11.63.11.28.28.49.6.21.31.21.66m-4.92-3.79q0 .28-.28.7-.56.28-1.05.28-.22 0-.39-.03-.18-.04-.39-.11-.28-.28-.49-.63-.21-.35-.56-.63.35-.5.77-.92.42-.42.99-.42.07 0 .49.14.35.35.63.7.28.36.28.92m-5.48-3.8q0 1.41-1.27 1.41-.56 0-1.05-.35-.5-.36-.5-.99v-.42q.29-.35.67-.67.39-.32.88-.32.42 0 .67.25.25.25.6.46Zm-7.74-.77q0 .35-.07.7l-.14.7q-.56.14-.84.14-.99 0-1.83-.84v-.42q0-.28.03-.49.04-.21-.03-.43.49-.14.98-.63.57.07.95.25.39.17.95.31Zm-6.68 2.39q-.77.63-1.33.63-.28 0-.5-.1-.21-.11-.42-.25-.14 0-.56.14v-.95q0-.46.07-.95.7-.49 1.34-.49.35 0 .63.14t.63.28q0 .35.07.77.07.43.07.78m24.4 28.19-.14.71q-.07.35-.35.63-.35.14-.6.14-.24 0-.53.35-.49-.35-.91-.63-.42-.28-.42-.92.14-.35.24-.63.11-.28.32-.56.7-.14 1.06-.14.98 0 1.33 1.05m-5.62-.49q0 .92-.57 1.48-.28 0-.52.03-.25.04-.53.04t-.67-.39q-.39-.39-.53-.6.14-1.12.57-1.44.42-.31 1.47-.31.14.21.21.38.07.18.21.39.36.14.36.42m-25.6-24.82q-.21.56-.21 1.06-.28.42-.6.56-.31.14-.66.35-.36 0-.71-.14t-.7-.14q0-.14.03-.21.04-.07.04-.21-.07-.21-.14-.43-.07-.21-.07-.42 0-.28.07-.42.07-.14-.07-.49.35-.14.74-.32.38-.17.81-.17.56 0 .84.31.28.32.63.67m31.01 32.77q0 .56-.46.95-.45.38-1.02.38-.28 0-.7-.14-.21-.35-.53-.67-.31-.31-.31-.73 0-.29.14-.57.35-.21.67-.42.31-.21.66-.35.43 0 .57.18.14.17.77.03 0 .35.1.67.11.31.11.67m-12.23-7.88q0 .28-.29.85l-.35.7h-1.47q-.28-.21-.46-.46-.18-.24-.46-.53.14-.35.14-.73v-.74q.57 0 .67-.07.11-.07.53-.42.35.21.53.17.17-.03.52.04.21.28.43.56.21.28.21.63m12.02 14.91q-.35.35-.53.56-.17.21-.74.21h-.7q-.28-.28-.46-.49-.17-.21-.45-.35 0-.35.1-.64.11-.28.11-.63.35-.35.56-.53.21-.17.77-.17.36.14.6.28.25.14.6.21 0 .35.07.77.07.43.07.78m-36.77-32.14q-.36.71-.71.85t-1.12.14q-.35-.35-.74-.67-.39-.32-.39-.88.35-.63.57-.95.21-.31.98-.31.49 0 1.05.35.36.63.36 1.47m17.71 17.37v.49q-.42.14-.45.32-.04.18-.18.53h-.35q-.14.07-.35.14-.21.07-.35.07-.28 0-.74-.32-.46-.31-.67-.52 0-.22-.03-.43-.04-.21-.04-.42 0-.56.35-.84.35-.28.71-.56.07 0 .49.14.14.07.35.07l1.12.42q0 .14.07.35 0 .14.04.28.03.14.03.28m19.48 19.62q0 1.12-.7 1.9-.28 0-.53.03-.25.04-.53.04-.42 0-.84-.42-.21-.5-.21-1.06 0-.28.03-.53.04-.24.04-.59.21-.07.46-.14.24-.07.45-.07h.99Zm-5.41 1.62-.14.98q-.5.77-1.34.77-.49 0-.77-.24-.28-.25-.71-.46v-.49q0-.63.36-1.09.35-.46 1.05-.46.49 0 .53.21.03.21.6.07ZM8.665 92.76q0 .49-.14.7-.21.21-.42.39-.21.18-.56.18-.78 0-1.09-.14-.32-.15-.88-.71.14-.28.14-.42-.14-.14-.14-.35v-.35q.49-.14.77-.42.28-.29.84-.29.36.14.64.18.28.03.45.14.18.11.29.35.1.25.1.74m29.39 32.2v.28q-.28.36-.67.64-.38.28-.8.28h-.43q-.91-.42-.91-1.41 0-.28.14-.7l.7-.28q.35-.14.78-.14.49 0 .84.35.14.28.21.49.07.21.14.49m-29.46-23.13v.84q-.49.5-1.41.5h-.77q-.21-.21-.46-.5-.24-.28-.24-.63 0-.49.14-.77t.42-.63q.28-.08.49-.15.21-.07.42-.07.36 0 .6.07.25.07.6.22.21.56.21 1.12m22.15 21.8q-.07.14-.21.56.14.14.14.35-.42.35-.77.67-.36.32-.78.32-.49 0-.63-.29-.14-.28-.63-.35-.07-.28-.07-.77 0-.77.49-1.27.14 0 .35-.03.21-.04.42-.04.56 0 .95.25.39.25.74.6m-19.41-12.59q-.35.35-.49.56-.14.21-.49.43-.56 0-.81-.04-.25-.03-.42-.14-.18-.11-.35-.28-.18-.18-.53-.46v-.49q0-.7.49-1.02.49-.32 1.13-.32.7 0 1.33.5 0 .14-.03.28-.04.14-.04.28 0 .42.21.7m11.11 10.76q-.07.35-.03.6.03.24.03.52l-.84.85q-.63-.07-1.27-.35-.63-.28-.63-1.06 0-.28.04-.49.03-.21-.04-.49.84-.35 1.48-.35.98 0 1.26.77m-7.59-3.38q0 .36-.14.92l-1.69.14-.67-.67q-.31-.32-.31-.88t.45-.88q.46-.31 1.02-.31.42 0 .99.21.35.84.35 1.47"></path><rect width="44.01" height="55.55" x="-22" y="-27.77" fill="none" rx="0" ry="0" transform="translate(28.08 98.89)"></rect><path fill="#d2d6dc" d="M94.025 78.42q-.21.42-.21.56 0 .14-.07.56-.49.14-.6.39-.1.24-.74.24-.35 0-.63-.17-.28-.18-.63-.25-.14-.35-.25-.67-.1-.31-.1-.66 0-.21.03-.39.04-.18.11-.39.42-.14.88-.24.45-.11.8-.46Zm-6.61-4.86q0 .29-.03.53-.04.25-.04.53l-.77.46q-.42.24-.85.24-.56 0-.77-.28-.21-.28-.49-.63-.35-.56-.18-.67.18-.1.04-.74.28-.21.56-.38.28-.18.63-.18.57 0 1.09.32.53.31.81.8m8.23 12.87q0 .28-.25.49-.24.22-.31.57l-1.48.35q-.35-.35-.53-.74-.17-.39-.53-.74.14-.49.39-.91.25-.42.53-.85.35 0 .6.07.24.07.59.07.28.29.53.46.25.18.46.53Zm-15.61-13.64q0 .49-.18.77-.17.29-.52.64-.22 0-.46.03-.25.04-.53.04-.7 0-.95-.56-.24-.57-.6-.99.57-.56.64-1.19.28 0 .52-.04.25-.03.53-.03.42 0 .7.21.29.21.71.28.14.56.14.84m13.15 20.67q0 .35-.04.67-.03.32-.03.67l-1.06.21h-.88q-.38 0-.95-.35-.14-.49-.03-.6.1-.1-.04-.74.57-.91.92-1.02.35-.1 1.33-.45l.78.98Zm-21.1-20.6q0 .42-.35.63 0 .22.14.5-.35.07-.67.24-.31.18-.66.18-.36 0-.6-.07-.25-.07-.6-.14-.35-.28-.42-.6-.07-.32-.35-.6.49-.49.56-1.05.42-.35 1.34-.35h.42q.14.14.31.35.18.21.32.21.28.14.35.31.07.18.21.39m-8.15.21q-.21.64-.21 1.2-.36.14-.78.24-.42.11-.84.11-.63 0-1.13-.49 0-.28-.1-.49-.11-.22-.11-.57.21-.35.32-.7.1-.35.39-.7l.21.28q.42-.14.56-.14.28 0 .6.17.31.18.59.32 0 .35.11.46.11.1.39.31m22.92 25.46q0 1.75-1.69 1.75-.77 0-1.33-.56.07-.7.1-1.09.04-.39.39-1.02l.42-.14q.21-.07.49-.07.49 0 .88.39.39.38.74.74m-22.92-17.16q-.42.42-.95.7-.53.28-1.16.28-.49-.49-.92-1.12-.21-.63-.21-.81 0-.18.04-.25.03-.07.14-.1.1-.04.1-.25.36-.14.67-.31.32-.18.67-.18.35 0 .77.25.43.24.71.52Zm20.46 23.41q0 .5-.21.85t-.28.77q-.29 0-.57-.03-.28-.04-.63-.04-.14 0-.39.11-.24.1-.38.17-.07-.42-.28-.84-.22-.42-.22-.92v-.84l1.55-.63q.35.14.67.31.32.18.67.32 0 .21.03.42.04.21.04.35m-6.05-5.27q.07.49.11.6.03.1.03.67 0 .63-.53.91-.52.28-1.09.28-.42 0-.84-.21-.14-.35-.32-.6-.17-.24-.31-.6 0-.42.21-.73.21-.32.35-.67.35 0 .6-.07.24-.07.6-.07.56 0 .63.1.07.11.56.39m8.72 13.64q-.49 0-.81-.28-.32-.28-.67-.63l.14-.99q.07-.49.43-.91.35-.21.73-.21.39 0 .81-.07.14.14.35.31.22.18.36.39.49.56.07 1.48-.43.91-1.41.91m6.12 4.85q0 .56-.42.85l-.43.49q-.56-.07-1.05-.11-.49-.03-.92-.38-.14-.36-.24-.67-.11-.32-.11-.67 0-.35.53-.74.53-.38.88-.38t.7.24q.35.25.71.39.35.49.35.98m-29.25-28.9q0 .5-.28.88-.29.39-.57.81-.21 0-.42.04-.21.03-.42.03-1.2 0-1.55-1.26.14-.43.07-.92.35-.14.46-.35.11-.21.32-.42.56 0 1.12.17.56.18 1.13.32.14.42.14.7m33.4 34.39q0 .42-.32 1.33-.32.92-.88.92-.35 0-.63-.11-.28-.1-.64-.1-.21-.29-.45-.43-.25-.14-.46-.35.07-.7.18-1.09.1-.38.35-.6.24-.21.63-.31.39-.11 1.02-.25.63.42 1.2.99m-26.44-23.28-.21.85q-.07.28-.42.7-.43.21-.92.21-.56 0-.98-.53-.43-.52-.43-1.09 0-.28.11-.52.11-.25.25-.46.49-.21.91-.21.28 0 .49.03.21.04.49.04Zm-6.89-2.74q-.14.49-.42 1.06-.29.56-1.13.56-.42 0-.74-.07-.31-.07-.67-.21-.14-.35-.14-.6t-.35-.6l.81-.81q.39-.38 1.09-.38h.56q.35.21.5.52.14.32.49.53m-.07 9.28q-.14.28-.81.81t-1.02.53q-.14-.21-.7-.49-.57-.29-.78-.36.21-.42.21-.49v-1.05q.57-.14.85-.32.28-.17.84-.17.21 0 .42.03.21.04.42.04.5.84.57 1.47m0 8.44q0 .35-.21.67-.21.31-.5.53-.56.21-1.12.21-.77 0-.84-.29-.08-.28-.5-.7v-.28q0-.21.04-.42.03-.21.03-.42.35-.21.71-.46.35-.25.77-.25.28 0 .53.07.24.07.52.07.15.29.36.64.21.35.21.63m0 9q0 .28-.14.7-.36.14-.5.39t-.49.39q-.42-.14-.88-.21-.45-.07-.88-.22-.14-.35-.24-.63-.11-.28-.11-.63 0-.56.42-.77.15-.22.36-.43t.49-.21q.77 0 1.37.39.6.39.6 1.23"></path><rect width="36.78" height="54.28" x="-18.39" y="-27.14" fill="none" rx="0" ry="0" transform="translate(79.44 99.1)"></rect><path fill="#d2d6dc" d="M149.715 82.21q-.35.57-.6.88-.25.32-.74.81h-.42q-.28 0-.49-.03-.21-.04-.42.03-.14-.42-.5-.67-.35-.24-.35-.74 0-.77.39-.91t.95-.28q.42-.14.7-.14.14 0 .67.46.53.45.81.59m-5.49-4.71q0 .42-.31.81-.32.39-.46.81-.7-.14-1.48-.32-.77-.17-.77-1.16 0-.28.11-.52.1-.25.1-.53.7-.49 1.41-.49.35 0 .67.17.31.18.66.39 0 .21.04.42.03.21.03.42m-6.04-4.43q-.07.35-.18.71-.1.35-.53.49 0 .98-.98.98-.42 0-.91-.21-.15-.35-.36-.67-.21-.31-.21-.66 0-.29.14-.57l.78-.63h.42q.49 0 1.05.42Zm14.83 17.23q-.42.77-1.33.77-.57 0-.88-.17-.32-.18-.74-.53v-.91q0-.36.07-.57.35-.21.67-.45.31-.25.74-.25.14 0 .56.14.56.7.56.98 0 .29.35.99m-22.92-17.44q0 .63-.67.88-.66.25-1.16.32-.42-.35-.67-.57-.24-.21-.8-.35.14-.21.24-.45.11-.25.11-.46 0-.35.67-.7.66-.36.87-.71.36.35.64.6t.63.46q0 .28.07.49.07.21.07.49m24.26 25.03q-.56 1.06-1.76 1.06-.14 0-.35-.04-.21-.03-.35-.03-.21-.35-.42-.71-.21-.35-.21-.7 0-.42.28-.98.35-.28.77-.28.42 0 .77-.22.35.36 1.06.5Zm-.7 8.51q0 .21-.14.63-.57.57-1.34.57-.28 0-.53-.07-.24-.07-.53-.14-.14-.29-.24-.53-.11-.25-.11-.6 0-.21.04-.39.03-.17.03-.38.21-.14.46-.21.25-.07.32-.43.28-.14.56-.14.35 0 .56.21.21.22.56.29.14.28.25.56.11.28.11.63m-31.93-30.59q-.49.29-.8.57-.32.28-.88.28h-.43l-.42-.42q-.21-.21-.35-.5-.07-.28-.1-.45-.04-.18-.04-.32 0-.28.14-.46.14-.17.14-.45.56-.28.92-.28.49 0 .87.21.39.21.74.42v.42q0 .28.07.53.07.24.14.45m28.13 38.61q-.21 1.54-1.62 1.54-.7 0-.91-.38-.21-.39-.49-.88.14-.56.52-1.06.39-.49 1.02-.49.35 0 .92.28 0 .42.17.53.18.1.39.46m-35.23-34.74q0 .78-.56 1.2-.56.42-1.27.42-.42 0-.84-.49-.42-.5-.42-.85 0-.49.24-.84.25-.35.6-.63l.56-.07q.57.14 1.13.38.56.25.56.88m29.04 41.63v.7q-.35.14-.74.21-.38.07-.81.07-.49 0-.87-.28-.39-.28-.74-.56.28-.64.67-1.2.38-.56 1.16-.56.56 0 .94.56.39.56.39 1.06m-34.03-34.1q0 .21-.04.42-.03.21-.03.42-.35.21-.77.39-.43.17-.85.17-.35 0-.77-.14-.14-.35-.28-.49t-.35-.49q.14-.85.49-1.41.35-.14.7-.21.35-.07.7-.07h.64q.21.35.38.67.18.31.18.74m-2.11 8.01q0 1.06-.39 1.76-.38.7-1.58.7-.28-.28-.67-.53-.38-.24-.38-.66 0-.28.07-.5.07-.21.07-.42.35-.21.7-.56.35-.35.7-.35.36 0 .57.28.21.28.91.28m27.49 29.67q0 .5-.14.71-.28.35-.67.45-.38.11-.73.25-.36-.28-.6-.39l-.6-.24q0-.21-.03-.39-.04-.18-.04-.39 0-.21.14-.63.14-.21.49-.53.35-.31.64-.31.56 0 .66.14.11.14.53.21.35.56.35 1.12m-27.21-19.54v.28q-.35.49-.53.84-.17.35-.87.35-.85 0-1.48-.63-.14-.56-.14-.98 0-.43.24-.71.25-.28.46-.63.28.14.53.07t.6 0q.35.42.77.46.42.03.42.95m18.63 19.89q0 .57-.42.95-.42.39-.98.39-.63 0-.92-.25-.28-.24-.42-.59-.14-.35-.21-.78-.07-.42-.35-.77.42-.07.63-.14.21-.07.35-.14.15-.07.25-.18.11-.1.46-.24.63.14 1.12.59.49.46.49 1.16m-15.46-10.89q0 .35-.14.56-.15.21-.29.49-.14.07-.52.21-.39.14-.53.14-.21 0-.39-.1-.17-.11-.38-.11-.14 0-.21.04-.08.03-.22.03-.21-.49-.24-.67-.04-.17-.04-.73l-.14-.29.78-1.12q.07.07.35.21.14 0 .28-.04.14-.03.28-.03.21 0 .67.28.45.28.6.42.14.57.14.71m6.75 6.61q0 .42-.29.63-.28.21-.42.56-.28.14-.49.21-.21.07-.49.07-.42 0-.81-.42-.39-.42-.81-.56.14-.56.32-1.06.17-.49.6-.91.63 0 1.51.35t.88 1.13"></path><rect width="49.85" height="55.76" x="-24.93" y="-27.88" fill="none" rx="0" ry="0" transform="translate(129.93 99.2)"></rect><path fill="#d2d6dc" d="M222.765 74.27q-.35.21-.7.49t-.84.28q-.29 0-.57-.07-.28-.07-.56-.07-.14-.28-.39-.74-.24-.45-.24-.74.28-.49.7-.91.42-.42 1.06-.42.35 0 .91.28.42.63.42.98 0 .36.21.92m-2.32 7.17q-.28.35-.49.91-.28.21-.53.36-.24.14-.52.35l-1.34-.35q-.21-.22-.28-.5-.07-.28-.28-.56.14-.28.28-.7.07-.21.07-.35l1.26-.78q.22.14.43.21.35.21.63.14.21.36.39.64zm-2.46 8.58q-.14.28-.24.45-.11.18-.11.53-.84.49-1.55.49-.49 0-1.05-.28-.49-.7-.49-1.33v-.64q.49-.35 1.05-.59.56-.25 1.13-.25.21 0 .42.04.21.03.35.03.14.35.28.74t.21.81m-2.74 8.51q0 1.54-1.48 1.54-.63 0-1.19-.52-.56-.53-.56-1.16 0-.92.91-1.09.91-.18 1.55-.25.35.35.56.63.21.28.21.85m-23.41-23.21q0 .71-.64 1.48-.63-.07-1.19-.04-.57.04-1.13-.52 0-.21-.07-.46t-.07-.53q0-.49.46-.98t1.02-.49q.49 0 .88.31.38.32.74.6Zm3.58 8.16q0 .56-.63.95-.63.38-1.2.38-.63 0-1.19-.56-.07-.35-.18-.63-.1-.28-.24-.63.28-.21.42-.5l.28-.56h.35q.42-.14.7-.14.43.14.81.39.39.24.74.46 0 .21.07.42t.07.42m1.9 7.94q0 .22-.04.43-.03.21-.03.49-.35.14-.49.21-.14.07-.25.1l-.28.11q-.18.07-.6.07l-.42.21q-.35-.42-.53-.53-.17-.1-.59-.45l.21-1.13.63-.84q.35-.14 1.05-.14.71 0 1.02.42.32.42.32 1.05m15.61 15.75q-.21.43-.39.78-.17.35-.52.7-.15 0-.32.04-.18.03-.32.03-.49 0-.74-.21-.24-.21-.59-.21-.14-.35-.32-.74t-.18-.81q0-.35.29-.77l1.96-.49q.36.35.74.73.39.39.39.95m-24.82-24.11q0 .35-.14.59-.14.25-.28.6-.28.07-.53.14t-.53.07q-.63 0-1.12-.42-.28-.49-.71-.77.14-.56.46-1.2.32-.63 1.02-.63.49 0 .81.21.32.21.81.21l.14.56q.07.29.07.64m11.6 16.45v.28q-.35.49-.84.88-.5.39-1.13.39-.77 0-1.26-.85-.07-.28-.14-.42-.07-.14-.07-.28 0-.56.56-1.02.56-.46 1.12-.46.21 0 .57.11.35.1.56.25.21.28.42.52.21.25.21.6m-13.5-7.8q-.42.14-.88.45-.46.32-.95.32-.14 0-.56-.14l-.63-.21q-.21-.28-.39-.6-.18-.32-.18-.67v-.42q.36-.35.85-.67.49-.31.91-.31.35 0 .46.21.1.21.25.42.77.28.84.6.07.31.28 1.02m23.91 23.55q0 .49-.39.95-.39.46-.95.46-.35 0-.63-.18t-.63-.18q-.15-.35-.32-.7-.18-.35-.18-.77 0-.28.11-.49l.24-.5q.5-.21 1.06-.21.63 0 1.05.21.29.43.46.64.18.21.18.77m-8.44-7.59q0 .28-.04.52-.03.25-.1.6-.35.14-.7.21-.36.07-.71.07-.49 0-.91-.21-.21-.35-.39-.56-.17-.21-.53-.42l.36-1.2q.35-.21.66-.42.32-.21.67-.21.35 0 .7.21.36.21.71.35.28.35.28 1.06m-39.09-34.11q-.15.36-.36.6-.21.25-.49.32-.42.42-.77.42-.49 0-1.06-.46-.56-.45-.56-.95.28-.63.46-.91.17-.28.81-.56.7 0 1.33.38.64.39.64 1.16m41.2 42.54q-.49.36-.85.67-.35.32-.98.32t-1.12-.56q-.5-.57-.5-1.2v-.56q.5-.35.85-.49t.91-.14q.35 0 .63.1.29.11.64.11l.35.63q0 .21-.04.39-.03.17-.1.38.14.28.21.35m-19.55-17.15q0 .7-.46 1.19-.45.5-1.16.5-.49 0-.84-.32t-.7-.6v-.35q0-.21-.07-.42t-.07-.42q0-.14.14-.57.98-.42 1.97-.63.21.35.42.46.21.1.56.31.21.43.21.85m-20.11-17.93q0 .35-.1.6-.11.24-.18.52-.35.07-.84.57-.49 0-.99-.11-.49-.11-.84-.46 0-.35-.07-.7l-.14-.7q.42-1.13 1.55-1.13h.49q.28.14.45.32.18.17.53.17.14.57.14.92m41.98 42.68q0 .28-.39.67-.38.38-.53.73-.7-.14-1.47-.42-.78-.28-.78-1.19 0-.5.15-.6.14-.11 0-.74.42 0 .66-.03.25-.04.6-.32.63.28 1.2.7.56.42.56 1.2m-40.15-34.39q-.07.15-.07.39 0 .25-.07.39.07.07.07.14t.07.21q-.28.35-.63.53-.35.17-.64.45-.35-.21-.73-.31-.39-.11-.74-.39 0-.35-.18-.53-.17-.17-.17-.73.21-.29.35-.57.14-.28.49-.49.28 0 .53-.03.24-.04.45-.04h.64q.21.28.35.46.14.17.28.52m15.89 17.86q-.07.71-.53 1.16-.45.46-1.16.46-.42 0-.95-.17-.52-.18-.52-.74 0-.21-.07-.42-.07-.22-.07-.43.35-.35.77-.84.42-.49.98-.49.57 0 .99.52.42.53.56.95m-13.64-9q0 .64-.35.92t-.77.63q-.43-.07-.81-.07-.39 0-.81-.14-.14-.35-.28-.67-.14-.31-.14-.67 0-.56.31-.77.32-.21.6-.63h1.48q.21.35.49.67.28.31.28.73m11.39 17.37q0 .35-.14.92h-.42q-.14 0-.28.17-.14.18-.42.18-.64 0-1.06-.32-.42-.32-.91-.67.14-.35.24-.88.11-.52.32-.73.35-.15.74-.32.38-.18.74-.18.21 0 .38.07.18.07.32.14.49.85.49 1.62m-9.14-8.58q-.14.35-.28.6t-.28.53l-.71.49q-.28 0-.45-.14-.18-.14-.46-.21-.21 0-.35.07-.28-.35-.49-.7-.21-.36-.21-.78 0-.21.03-.42.04-.21.04-.42.35-.28.77-.39.42-.1.77-.31.35.21.71.42l.7.42.14.42q.07.21.07.42m2.32 8.3q0 .42-.53.84-.52.43-.88.43-.56 0-1.19-.43-.63-.42-.63-1.05 0-.35.14-.6.14-.24.21-.6.42 0 .6-.17.17-.18.52-.18.5 0 .88.28.39.28.81.5 0 .28.04.49.03.21.03.49m3.59 8.37q0 .35-.28.91l-.85.56q-.84-.28-1.44-.59-.6-.32-.6-1.37v-.36q.21-.21.32-.28.1-.07.21-.14.11-.07.18-.21.07-.14.14-.49.28.28.49.42.14-.07.49-.07h.28q.42.56.99.98 0 .15.03.32.04.18.04.32"></path><rect width="63.42" height="53.08" x="-31.71" y="-26.54" fill="none" rx="0" ry="0" transform="translate(191.56 99.06)"></rect><path fill="#d2d6dc" d="M269.875 73.56q0 .22-.14.64l-.77.7h-.42q-.28 0-.53-.03-.25-.04-.6-.04-.21-.35-.39-.7-.17-.35-.17-.78.7-1.12 1.55-1.12.21 0 .42.03.21.04.35.04.28.28.49.6.21.31.21.66m-6.82 0q0 .43-.21.74-.21.32-.42.67-.35 0-.6.04-.24.03-.53.03-.28 0-.7-.14l-.84-.91q.28-.28.24-.35-.03-.08-.03-.43 0-.21.07-.35l.7-.7h.81q.39 0 .81.07.14.28.32.53.17.24.38.45Zm-6.75-.07q-.07.78-.56 1.16-.49.39-1.27.39-.14 0-.7-.14-.07-.07-.46-.53-.38-.45-.24-.59.07-.07.07-.29 0-.49.45-.94.46-.46.95-.46.36 0 .57.14.21.14.56.21.21.28.32.56.1.28.31.49m-7.24.57q-.28.28-.49.35v.35q-.28.14-.6.21-.32.07-.67.28-.35-.21-.7-.45-.35-.25-.77-.46 0-.35-.04-.7-.03-.36-.03-.71.42-.21.8-.49.39-.28.81-.56l1.13.49q.14.49.35.84.21.35.21.85m-6.89-.35q0 .42-.21.49-.14.35-.28.45-.14.11-.28.46h-.71q-1.19 0-1.44-.42-.24-.42-.39-1.41.07-.35.25-.49t.25-.49q.35-.14.59-.21.25-.07.6-.07t.6.1q.25.11.53.18 0 .49.24.74.25.24.25.67m7.1 7.94q-.35.56-.63 1.02-.28.46-.99.74-.35-.14-.45-.11-.11.04-.46.04l-.28-.14q-.28-.35-.42-.64-.14-.28-.43-.63.43-.42.43-.98.7-.49 1.4-.49.21 0 .39.03.18.04.39.11.21.21.24.38.04.18.11.32t.21.21q.14.07.49.14m-14.27-7.45q-.57.56-.99.67-.42.1-1.19.1-.71 0-.92-.67-.21-.66-.21-1.23.42-.35.81-.7.39-.35.95-.28l.35-.21q.28.42.49.63.22.21.36.42.14.21.21.49.07.29.14.78m14.27 16.17q-.14.14-.28.49t-.21.49q-.21.14-.46.29-.24.14-.46.35-.35-.21-.56-.21-.21 0-.56-.07-.28-.36-.39-.43-.1-.07-.52-.14.14-.7.35-1.58.21-.88 1.19-.88.85 0 1.16.56.32.57.74 1.13m-21.66-16.66q0 .49-.42 1.05-.28.14-.52.21-.25.07-.6.07-.64 0-.92-.39-.28-.38-.63-.87.14-.71.14-1.06.35-.21.77-.39.43-.17.85-.17.21 0 .46.07.24.07.45.07l.28.7q.14.35.14.71m21.52 24.96q-.28.56-.53 1.05-.24.49-1.02.49-.35 0-.56-.1-.21-.11-.49-.11-.28-.28-.35-.56-.07-.28-.42-.42 0-.56.14-.85.14-.28.49-.7l1.26-.42q.36.35.46.42.11.07.67.21 0 .49.03.56.04.07.32.43m-.07 8.29q0 .5-.18.5-.17 0-.03.49-.35.21-.67.42-.32.21-.74.21-.21 0-.42-.07t-.49-.14q-.07-.14-.42-.6-.35-.46-.35-.6 0-.56.59-1.05.6-.49 1.16-.49.28 0 .74.45.46.46.81.67Zm-.28 8.86q-.14.35-.35.57-.21.21-.35.56l-1.69-.14q-.21-.5-.53-.67-.32-.18-.39-.74.36-.56.64-1.02.28-.46 1.05-.46.85 0 1.41.71Zm.28 8.09q0 .14-.14.56-.21.21-.6.53-.39.31-.74.31t-.45-.14q-.11-.14-.53-.07l-.53-.66q-.24-.32-.24-.81 0-.49.35-.74t.56-.6h.56q.35 0 1.06.14.14.35.42.67.28.32.28.81"></path><rect width="45.35" height="53.43" x="-22.68" y="-26.71" fill="none" rx="0" ry="0" transform="translate(247.7 99.1)"></rect><path fill="#d2d6dc" d="M321.555 73.35q0 .36-.14.78-.56 0-.81.14-.24.14-.67.35-.42-.35-.87-.53-.46-.17-.46-.88 0-.28.1-.49.11-.21.11-.42.42-.56 1.12-.56.29 0 .43.14.42 0 .63.14l.42.28q0 .28.07.53.07.24.07.52m-.21 5.77q0 .35-.03.56-.04.21.03.49-.42.07-.84.22-.42.14-.85.14-.56 0-.91-.46t-.35-1.02q0-.14.03-.32.04-.17.04-.31.35-.57.95-.57t1.16-.07q.35.36.56.57.21.21.21.77m0 6.96q-.35.35-.84.7-.49.36-1.06.36-.21 0-.63-.15-.21-.28-.32-.52-.1-.25-.38-.53.28-.56.45-.88.18-.32.43-.46.24-.14.59-.17.35-.04.99-.11.35.42.45.85.11.42.32.91m.07 7.1q-.35.21-.53.46-.17.25-.73.25-.57 0-.88-.29-.32-.28-.67-.63 0-.98.24-1.37.25-.39.74-1.16.07.07.14.35.07.28.21.35h.57l.91.78Zm0 5.49q0 .49-.28.95-.28.45-.84.45-.14 0-.32-.03-.18-.04-.32-.04l-.35.14q-.49-.49-.91-1.12 0-.21.14-.63l-.28-.22q.28-.35.63-.7t.91-.35q.43 0 .57.18.14.17.84.03.07.35.14.67.07.31.07.67m-6.19.42q0 .28-.07.53-.07.24-.14.45-.28.07-.77.07-.77-.07-1.13-.14-.35-.07-.77-.49.07-.77.21-1.23.14-.46.92-.81.42.07.8.18.39.1.74.24.21.64.21 1.2m6.05 6.12q0 1.47-1.55 1.47-.28 0-.59-.21-.32-.21-.6-.35-.07-.35-.21-.49-.07-.07-.14-.07l.14-.99h.28q.21-.35.42-.52.21-.18.7-.18.36 0 .64.07t.63.07q.07.28.18.63.1.35.1.57m-12.09-5.98q-.28.35-.57.63-.63.63-1.33.63-.14 0-.25-.03-.1-.04-.24-.04-.43-.35-.57-.84-.14-.49-.14-.98.28-.5.71-.64.42-.14.91-.14h.7q.14.28.28.49.15.22.29.43.14.28.21.49m12.23 12.37q0 .71-.35.88-.35.18-.49.53-.92 0-1.27-.07t-.46-.25q-.1-.17-.17-.45t-.49-.71q.21-.42.45-.81.25-.38.67-.66h.35q.28 0 .5.1.21.11.56.11.28.28.49.6.21.31.21.73m-41.55-38.95q0 1.06-1.06 1.41-.42 0-.95-.14-.52-.14-.81-.43-.21-.42-.21-.91 0-.35.14-.56.14-.21.29-.49 0-.07-.15-.5h.99q.63 0 1.48.36.14.35.21.63.07.28.07.63m22.78 26.58v.35q-.35.28-.74.49-.39.21-.88.21t-.7-.14q-.14-.14-.39-.49t-.25-.49q0-.63.36-1.16.35-.53 1.05-.53.42 0 .77.21.36.21.71.49 0 .29.03.53.04.25.04.53m18.77 18.35q0 .63-.21 1.13-.91.35-1.83.35-.56-.5-.7-.81-.14-.32-.49-.88.49-.35.7-1.06.28 0 .53-.1.24-.11.52-.11.36 0 .64.11.28.1.63.25.21.56.21 1.12m-41.55-38.6q0 .63-.35 1.05-.36.43-.99.43-.35 0-.63-.15l-.56-.28q-.36-.56-.36-1.12v-.85q.85-.49 1.55-.49h.7q.07.35.36.53.28.18.28.53Zm41.34 44.93q0 .63-.42.84-.42.21-.56.85-.57-.36-1.3-.6-.74-.25-.74-1.16 0-.21.07-.39.07-.17.14-.39l-.21-.28q.63-.49 1.26-.49.42 0 .81.11.39.1.81.24 0 .35.07.64.07.28.07.63m-25.66-24.54q-.57.35-.71.67-.14.31-.91.31-.63 0-.88-.24-.25-.25-.67-.6v-.49q0-.28.07-.49l.14-.57q.21-.14.5-.28.56-.28 1.12-.28h.35l.25.25.24.24q.36.35.36.64 0 .21-.14.49.21.21.28.35m-15.61-14.2q0 .42-.21.52-.21.11-.14.74-.57.14-.92.14-.98 0-1.4-.6-.43-.59-.43-1.51.21-.14.39-.24.18-.11.39-.25.28-.14.7-.14.7 0 1.41.35 0 .28.1.49.11.22.11.5m8.01 13.57-.63.63q-.28.21-.67.39-.38.17-.74.17-.35 0-.59-.03-.25-.04-.6-.11 0-.49-.18-.6-.17-.1-.24-.59.28-.5.7-.88.42-.39.98-.39.71 0 1.13.56Zm-8.15-6.96q0 .35-.28 1.05-.43 0-.67.18-.25.17-.6.17-.49 0-.88-.35t-.74-.7l.42-.64q-.07-.14-.07-.35l.36-.84 1.89.35q.57.42.57 1.13m.07 5.76q0 .42-.07.81-.07.39-.07.74-.36.28-.64.49-.28.21-.77.21l-1.48-1.12q0-.57.04-.81.03-.25.14-.35.1-.11.21-.21.11-.11.32-.53.35.07.63.07t.63.14q.35.28.53.42.18.14.53.14m.28 7.88q-.35.35-.74.56-.39.21-.88.21-.35 0-.74-.14-.38-.14-.74-.28 0-.49.14-.95.15-.46.15-.88.49-.49 1.12-.49.63 0 1.41.49.07.21.07.77 0 .14.07.35.07.22.14.36m-.28 7.31q-.71.14-1.13.14-.42 0-.98-.14-.14-.21-.28-.46-.14-.24-.36-.46 0-.42.07-.84.08-.42.43-.77.21 0 .45-.04.25-.03.53-.03.42 0 .99.14Zm.42 4.57q-.28.49-.46.74-.17.24-.1.81-.57.35-1.13.35-.21 0-.39-.04-.17-.03-.38-.1l-.35-.35q-.07-.07-.5-.22 0-.35.07-.66.07-.32 0-.67.36-.21.81-.53.46-.32.81-.32.21 0 .35.08.14.07.28.21.14.42.36.52.21.11.63.18m-.42 7.03q0 .49-.21.77-.36.36-1.06.36-.21 0-.46-.04-.24-.03-.45-.03-.21-.22-.28-.43-.07-.21-.43-.28-.14-.28-.14-.56 0-.42.28-.77.29-.36.5-.78.42-.07.84-.1.42-.04.77-.18.29.28.46.6.18.32.04.67.14.42.14.77"></path><rect width="44.93" height="54.57" x="-22.46" y="-27.29" fill="none" rx="0" ry="0" transform="translate(299.59 98.81)"></rect><path fill="#d2d6dc" d="M401.785 73.56q0 .22-.14.64l-.78.7h-.42q-.28 0-.52-.03-.25-.04-.6-.04-.21-.35-.39-.7-.17-.35-.17-.78.7-1.12 1.54-1.12.21 0 .42.03.21.04.36.04.28.28.49.6.21.31.21.66m-6.82 0q0 .43-.21.74-.21.32-.42.67-.36 0-.6.04-.25.03-.53.03t-.7-.14l-.85-.91q.28-.28.25-.35-.04-.08-.04-.43 0-.21.07-.35l.71-.7h.81q.38 0 .81.07.14.28.31.53.18.24.39.45Zm-6.75-.07q-.07.78-.56 1.16-.5.39-1.27.39-.14 0-.7-.14-.07-.07-.46-.53-.39-.45-.25-.59.07-.07.07-.29 0-.49.46-.94.46-.46.95-.46.35 0 .56.14.21.14.57.21.21.28.31.56.11.28.32.49m-7.24.57q-.29.28-.5.35v.35q-.28.14-.59.21-.32.07-.67.28-.35-.21-.7-.45-.36-.25-.78-.46 0-.35-.03-.7-.04-.36-.04-.71.42-.21.81-.49.39-.28.81-.56l1.12.49q.14.49.36.84.21.35.21.85m-6.89-.35q0 .42-.22.49-.14.35-.28.45-.14.11-.28.46h-.7q-1.2 0-1.44-.42-.25-.42-.39-1.41.07-.35.25-.49.17-.14.24-.49.35-.14.6-.21.25-.07.6-.07t.6.1q.24.11.52.18 0 .49.25.74.25.24.25.67m7.1 7.94q-.35.56-.64 1.02-.28.46-.98.74-.35-.14-.46-.11-.1.04-.45.04l-.29-.14q-.28-.35-.42-.64-.14-.28-.42-.63.42-.42.42-.98.71-.49 1.41-.49.21 0 .39.03.17.04.38.11.21.21.25.38.03.18.1.32t.21.21q.15.07.5.14m-14.28-7.45q-.56.56-.98.67-.42.1-1.2.1-.7 0-.91-.67-.21-.66-.21-1.23.42-.35.81-.7.38-.35.95-.28l.35-.21q.28.42.49.63.21.21.35.42.14.21.21.49.07.29.14.78m14.28 16.17q-.14.14-.28.49t-.22.49q-.21.14-.45.29-.25.14-.46.35-.35-.21-.56-.21-.21 0-.56-.07-.29-.36-.39-.43-.11-.07-.53-.14.14-.7.35-1.58.21-.88 1.2-.88.84 0 1.16.56.32.57.74 1.13m-21.66-16.66q0 .49-.42 1.05-.28.14-.53.21-.24.07-.6.07-.63 0-.91-.39-.28-.38-.63-.87.14-.71.14-1.06.35-.21.77-.39.42-.17.84-.17.22 0 .46.07.25.07.46.07l.28.7q.14.35.14.71m21.52 24.96q-.28.56-.53 1.05t-1.02.49q-.35 0-.56-.1-.21-.11-.5-.11-.28-.28-.35-.56-.07-.28-.42-.42 0-.56.14-.85.14-.28.49-.7l1.27-.42q.35.35.46.42.1.07.66.21 0 .49.04.56.04.07.32.43m-.07 8.29q0 .5-.18.5t-.03.49q-.36.21-.67.42-.32.21-.74.21-.21 0-.42-.07t-.5-.14q-.07-.14-.42-.6-.35-.46-.35-.6 0-.56.6-1.05t1.16-.49q.28 0 .74.45.45.46.81.67Zm-.29 8.86q-.14.35-.35.57-.21.21-.35.56l-1.69-.14q-.21-.5-.52-.67-.32-.18-.39-.74.35-.56.63-1.02.28-.46 1.06-.46.84 0 1.4.71Zm.29 8.09q0 .14-.14.56-.22.21-.6.53-.39.31-.74.31t-.46-.14q-.1-.14-.52-.07-.29-.35-.53-.66-.25-.32-.25-.81 0-.49.35-.74t.57-.6h.56q.35 0 1.05.14.14.35.42.67.29.32.29.81"></path><rect width="45.35" height="53.43" x="-22.68" y="-26.71" fill="none" rx="0" ry="0" transform="translate(379.61 99.1)"></rect><path fill="#d2d6dc" d="M451.705 82.21q-.35.57-.6.88-.24.32-.74.81h-.42q-.28 0-.49-.03-.21-.04-.42.03-.14-.42-.49-.67-.36-.24-.36-.74 0-.77.39-.91t.95-.28q.42-.14.7-.14.14 0 .67.46.53.45.81.59m-5.48-4.71q0 .42-.32.81-.32.39-.46.81-.7-.14-1.47-.32-.78-.17-.78-1.16 0-.28.11-.52.1-.25.1-.53.71-.49 1.41-.49.35 0 .67.17l.67.39q0 .21.03.42.04.21.04.42m-6.05-4.43q-.07.35-.18.71-.1.35-.52.49 0 .98-.99.98-.42 0-.91-.21-.14-.35-.35-.67-.21-.31-.21-.66 0-.29.14-.57l.77-.63h.42q.49 0 1.06.42Zm14.84 17.23q-.43.77-1.34.77-.56 0-.88-.17-.32-.18-.74-.53v-.91q0-.36.07-.57.35-.21.67-.45.32-.25.74-.25.14 0 .56.14.56.7.56.98 0 .29.36.99m-22.93-17.44q0 .63-.66.88-.67.25-1.16.32-.43-.35-.67-.57-.25-.21-.81-.35.14-.21.24-.45.11-.25.11-.46 0-.35.67-.7.67-.36.88-.71.35.35.63.6t.63.46q0 .28.07.49.07.21.07.49m24.26 25.03q-.56 1.06-1.76 1.06-.14 0-.35-.04-.21-.03-.35-.03-.21-.35-.42-.71-.21-.35-.21-.7 0-.42.28-.98.35-.28.77-.28.42 0 .78-.22.35.36 1.05.5Zm-.7 8.51q0 .21-.14.63-.57.57-1.34.57-.28 0-.53-.07-.24-.07-.52-.14-.14-.29-.25-.53-.1-.25-.1-.6 0-.21.03-.39.04-.17.04-.38.21-.14.45-.21.25-.07.32-.43.28-.14.56-.14.35 0 .56.21.21.22.57.29.14.28.24.56.11.28.11.63m-31.92-30.59q-.5.29-.81.57-.32.28-.88.28h-.42q-.21-.21-.43-.42-.21-.21-.35-.5-.07-.28-.1-.45-.04-.18-.04-.32 0-.28.14-.46.14-.17.14-.45.57-.28.92-.28.49 0 .88.21.38.21.74.42v.42q0 .28.07.53.07.24.14.45m28.12 38.61q-.21 1.54-1.62 1.54-.7 0-.91-.38-.21-.39-.49-.88.14-.56.52-1.06.39-.49 1.02-.49.36 0 .92.28 0 .42.17.53.18.1.39.46m-35.23-34.74q0 .78-.56 1.2-.56.42-1.26.42-.43 0-.85-.49-.42-.5-.42-.85 0-.49.25-.84.24-.35.59-.63l.57-.07q.56.14 1.12.38.56.25.56.88m29.04 41.63v.7q-.35.14-.73.21-.39.07-.81.07-.5 0-.88-.28-.39-.28-.74-.56.28-.64.67-1.2.38-.56 1.16-.56.56 0 .95.56.38.56.38 1.06m-34.03-34.1q0 .21-.03.42-.04.21-.04.42-.35.21-.77.39-.42.17-.85.17-.35 0-.77-.14-.14-.35-.28-.49t-.35-.49q.14-.85.49-1.41.35-.14.7-.21.36-.07.71-.07h.63q.21.35.39.67.17.31.17.74m-2.11 8.01q0 1.06-.38 1.76-.39.7-1.59.7-.28-.28-.66-.53-.39-.24-.39-.66 0-.28.07-.5.07-.21.07-.42.35-.21.7-.56.35-.35.71-.35.35 0 .56.28.21.28.91.28m27.5 29.67q0 .5-.15.71-.28.35-.66.45-.39.11-.74.25-.35-.28-.6-.39l-.6-.24q0-.21-.03-.39-.04-.18-.04-.39 0-.21.14-.63.14-.21.5-.53.35-.31.63-.31.56 0 .67.14.1.14.52.21.36.56.36 1.12m-27.22-19.54v.28q-.35.49-.52.84-.18.35-.88.35-.85 0-1.48-.63-.14-.56-.14-.98 0-.43.25-.71.24-.28.45-.63.29.14.53.07.25-.07.6 0 .35.42.77.46.42.03.42.95m18.64 19.89q0 .57-.42.95-.43.39-.99.39-.63 0-.91-.25-.28-.24-.43-.59-.14-.35-.21-.78-.07-.42-.35-.77.42-.07.64-.14.21-.07.35-.14.14-.07.24-.18.11-.1.46-.24.63.14 1.12.59.5.46.5 1.16m-15.47-10.89q0 .35-.14.56-.14.21-.28.49-.14.07-.53.21-.39.14-.53.14-.21 0-.39-.1-.17-.11-.38-.11-.14 0-.21.04-.07.03-.21.03-.21-.49-.25-.67-.03-.17-.03-.73l-.15-.29.78-1.12q.07.07.35.21.14 0 .28-.04.14-.03.28-.03.21 0 .67.28.46.28.6.42.14.57.14.71m6.75 6.61q0 .42-.28.63-.28.21-.42.56-.29.14-.5.21-.21.07-.49.07-.42 0-.81-.42-.38-.42-.81-.56.14-.56.32-1.06.18-.49.6-.91.63 0 1.51.35t.88 1.13"></path><rect width="49.85" height="55.76" x="-24.93" y="-27.88" fill="none" rx="0" ry="0" transform="translate(431.92 99.2)"></rect><path fill="#d2d6dc" d="M509.435 82.21q-.35.57-.6.88-.25.32-.74.81h-.42q-.28 0-.49-.03-.21-.04-.42.03-.15-.42-.5-.67-.35-.24-.35-.74 0-.77.39-.91.38-.14.95-.28.42-.14.7-.14.14 0 .67.46.53.45.81.59m-5.49-4.71q0 .42-.31.81-.32.39-.46.81-.7-.14-1.48-.32-.77-.17-.77-1.16 0-.28.1-.52.11-.25.11-.53.7-.49 1.41-.49.35 0 .66.17.32.18.67.39 0 .21.04.42.03.21.03.42m-6.04-4.43q-.07.35-.18.71-.11.35-.53.49 0 .98-.98.98-.42 0-.92-.21-.14-.35-.35-.67-.21-.31-.21-.66 0-.29.14-.57l.78-.63h.42q.49 0 1.05.42Zm14.83 17.23q-.42.77-1.33.77-.57 0-.88-.17-.32-.18-.74-.53v-.91q0-.36.07-.57.35-.21.67-.45.31-.25.74-.25.14 0 .56.14.56.7.56.98 0 .29.35.99m-22.92-17.44q0 .63-.67.88t-1.16.32q-.42-.35-.67-.57-.24-.21-.8-.35.14-.21.24-.45.11-.25.11-.46 0-.35.66-.7.67-.36.88-.71.36.35.64.6t.63.46q0 .28.07.49.07.21.07.49m24.26 25.03q-.56 1.06-1.76 1.06-.14 0-.35-.04-.21-.03-.35-.03-.21-.35-.43-.71-.21-.35-.21-.7 0-.42.29-.98.35-.28.77-.28.42 0 .77-.22.35.36 1.06.5Zm-.71 8.51q0 .21-.14.63-.56.57-1.33.57-.28 0-.53-.07t-.53-.14q-.14-.29-.24-.53-.11-.25-.11-.6 0-.21.04-.39.03-.17.03-.38.21-.14.46-.21.25-.07.32-.43.28-.14.56-.14.35 0 .56.21.21.22.56.29.14.28.25.56.1.28.1.63m-31.92-30.59q-.49.29-.81.57-.31.28-.87.28h-.43l-.42-.42q-.21-.21-.35-.5-.07-.28-.11-.45-.03-.18-.03-.32 0-.28.14-.46.14-.17.14-.45.56-.28.91-.28.5 0 .88.21.39.21.74.42v.42q0 .28.07.53.07.24.14.45m28.13 38.61q-.21 1.54-1.62 1.54-.7 0-.91-.38-.21-.39-.5-.88.14-.56.53-1.06.39-.49 1.02-.49.35 0 .92.28 0 .42.17.53.18.1.39.46m-35.23-34.74q0 .78-.56 1.2-.56.42-1.27.42-.42 0-.84-.49-.42-.5-.42-.85 0-.49.24-.84.25-.35.6-.63l.56-.07q.57.14 1.13.38.56.25.56.88m29.04 41.63v.7q-.35.14-.74.21-.38.07-.81.07-.49 0-.88-.28-.38-.28-.73-.56.28-.64.66-1.2.39-.56 1.16-.56.57 0 .95.56.39.56.39 1.06m-34.03-34.1q0 .21-.04.42-.03.21-.03.42-.35.21-.77.39-.43.17-.85.17-.35 0-.77-.14-.14-.35-.28-.49t-.35-.49q.14-.85.49-1.41.35-.14.7-.21.35-.07.7-.07h.64q.21.35.38.67.18.31.18.74m-2.11 8.01q0 1.06-.39 1.76-.38.7-1.58.7-.28-.28-.67-.53-.38-.24-.38-.66 0-.28.07-.5.07-.21.07-.42.35-.21.7-.56.35-.35.7-.35t.57.28q.21.28.91.28m27.49 29.67q0 .5-.14.71-.28.35-.67.45-.38.11-.74.25-.35-.28-.59-.39l-.6-.24q0-.21-.04-.39-.03-.18-.03-.39 0-.21.14-.63.14-.21.49-.53.35-.31.63-.31.57 0 .67.14.11.14.53.21.35.56.35 1.12m-27.21-19.54v.28q-.35.49-.53.84-.17.35-.88.35-.84 0-1.47-.63-.14-.56-.14-.98 0-.43.24-.71.25-.28.46-.63.28.14.53.07.24-.07.6 0 .35.42.77.46.42.03.42.95m18.63 19.89q0 .57-.42.95-.42.39-.98.39-.64 0-.92-.25-.28-.24-.42-.59-.14-.35-.21-.78-.07-.42-.35-.77.42-.07.63-.14.21-.07.35-.14.14-.07.25-.18.1-.1.46-.24.63.14 1.12.59.49.46.49 1.16m-15.47-10.89q0 .35-.14.56-.14.21-.28.49-.14.07-.52.21-.39.14-.53.14-.21 0-.39-.1-.17-.11-.39-.11-.14 0-.21.04-.07.03-.21.03-.21-.49-.24-.67-.04-.17-.04-.73l-.14-.29.77-1.12q.07.07.36.21.14 0 .28-.04.14-.03.28-.03.21 0 .67.28.45.28.59.42.14.57.14.71m6.75 6.61q0 .42-.28.63-.28.21-.42.56-.28.14-.49.21-.21.07-.49.07-.42 0-.81-.42-.39-.42-.81-.56.14-.56.32-1.06.17-.49.59-.91.64 0 1.52.35.87.35.87 1.13"></path><rect width="49.85" height="55.76" x="-24.93" y="-27.88" fill="none" rx="0" ry="0" transform="translate(489.65 99.2)"></rect><path fill="#d2d6dc" d="M527.365 73.28q0 .57-.43.95-.42.39-.91.39-.35 0-.67-.18-.31-.17-.67-.38-.14-.28-.21-.5-.07-.21-.07-.49 0-.77.81-1.12.81-.35 1.37-.49.14.21.32.52.18.32.32.39.07.28.1.49.04.21.04.42m-.14 7.6q-.57.42-.81.74-.25.31-1.02.31-.21 0-.63-.42-.43-.42-.43-.7-.07-.85.21-1.44.29-.6 1.06-.6.63 0 .88.31.24.32.6.67v.35q0 .14.07.39t.07.39m.14 6.61q-.14.77-.32 1.16-.18.38-.67.74-.42 0-.84-.04t-.85-.11q-.14-.56-.24-1.02-.11-.45-.25-1.01h.21q.14 0 .21-.07.22-.36.39-.53.18-.18.67-.18.7 0 1.02.14.32.14.67.92m32.06 36.49q-.14.42-.6 1.02-.46.6-.95.6-.28 0-.53-.11-.24-.1-.52-.1-.21-.36-.42-.74-.22-.39-.22-.74t.29-.7q.28-.36.49-.57.14 0 .31-.03.18-.04.39-.04.35 0 .6.14t.6.14q.07.57.56 1.13m-32.34-29.32q0 .77-.11 1.02-.11.24-.53.95-.84 0-1.83-.49-.14-.29-.24-.53-.11-.25-.11-.53v-.49q.35-.35.74-.6t.88-.25q.28 0 .7.15.07.21.14.45.07.25.36.32m26.57 30.16q-.56.14-.66.21-.11.07-.53.36-1.27-.15-1.83-1.06.07-.56.35-1.34.63-.63 1.34-.63.49 0 .74.39.24.39.45.74v.77q0 .14.14.56m-26.22-22.29q0 .36-.18.64-.17.28-.17.63-.43.14-.85.21-.42.07-.91.14-.35-.35-.64-.81-.28-.45-.28-1.02 0-.14.04-.31.03-.18.03-.32.36-.28.71-.42.35-.14.49-.56l1.34.7q.42.56.42 1.12m20.32 21.38q0 .28-.07.49-.07.21-.07.49-.28.14-.53.32t-.6.18q-.56 0-1.02-.29-.45-.28-.45-.91 0-.49.17-.84.18-.36.32-.92.42.14.63.14.14 0 .39-.1.24-.11.38-.18.21.35.53.77.32.43.32.85m-6.26-.21q0 .28-.07.49-.07.21-.14.49-.21.21-.49.32-.28.1-.28.46l-1.48-.36q-.21-.35-.39-.66-.17-.32-.1-.67v-.49q.35-.36.8-.64.46-.28 1.02-.28.29 0 .85.14.14.35.21.6.07.25.07.6m-14.06-14.63q0 .42-.04.85-.03.42-.1.84-.28.28-.6.53-.32.24-.74.24-.77 0-1.02-.49t-.67-.63v-.42q0-.35.18-.64.17-.28.24-.63.36-.07.71-.1.35-.04.63-.32.35.14.7.46.36.31.71.31m7.31 14.84q0 .14-.04.28-.03.14-.03.28-.35.28-.63.56t-.78.28q-.56 0-.98-.52-.42-.53-.42-1.09 0-.71.56-1.13.21 0 .46-.07.24-.07.52-.07h.64q.21.35.45.67.25.32.25.81m-7.31-6.05q-.35.35-.71.74-.35.39-.91.39-.42 0-.84-.28-.43-.29-.57-.71 0-.35.04-.84.03-.49.46-.63.35-.29.63-.46.28-.18.77-.18.63.35.78.88.14.53.35 1.09m-.35 7.38q-.36.15-.71.39-.35.25-.77.25-.56 0-.95-.49-.39-.5-.39-1.06 0-.49.35-.84.36-.35.64-.71.56.14.95.25.38.11.81.46 0 .42.03.88.04.45.04.87"></path><rect width="35.23" height="54.42" x="-17.61" y="-27.21" fill="none" rx="0" ry="0" transform="translate(542.31 99.17)"></rect></svg></svg>